<svg width="0" height="0" class="hidden">
  <symbol fill="none" xmlns="http://www.w3.org/2000/svg" viewBox="0 0 11 12" id="arrow-left">
    <path d="M10.82 0L2.16399 4.99774V0.540998H0V11.361H2.16399V6.90422L10.82 11.902V0Z" fill="var(--color, #fff)"></path>
  </symbol>
  <symbol fill="none" xmlns="http://www.w3.org/2000/svg" viewBox="0 0 11 12" id="arrow-right">
    <path d="M8.656 0.536529V4.95645L0 0V11.8036L8.656 6.84718V11.2671H10.82V0.536529H8.656Z" fill="var(--color, #fff)"></path>
  </symbol>
  <symbol fill="none" xmlns="http://www.w3.org/2000/svg" viewBox="0 0 18 14" id="connectar">
    <rect x="8.823" y="1" width="8" height="12" rx="0.5" stroke="var(--color, #fff)"></rect>
    <circle cx="12.823" cy="8.5" r="1.5" stroke="var(--color, #fff)"></circle>
    <circle cx="12.823" cy="3.5" r="0.5" stroke="var(--color, #fff)"></circle>
    <path d="M5.97534 0.855591H1.677C1.12472 0.855591 0.677002 1.30331 0.677002 1.85559V9.19062C0.677002 9.7429 1.12472 10.1906 1.677 10.1906H5.97534" stroke="var(--color, #fff)"></path>
    <line x1="3.35132" y1="12.92" x2="5.97534" y2="12.92" stroke="var(--color, #fff)"></line>
  </symbol>
  <symbol xmlns="http://www.w3.org/2000/svg" fill="var(--color, #fff)" viewBox="0 0 256 256" id="picture-in-picture">
    <path d="M216,48H40A16,16,0,0,0,24,64V192a16,16,0,0,0,16,16H216a16,16,0,0,0,16-16V64A16,16,0,0,0,216,48ZM40,64H216v56H144a16,16,0,0,0-16,16v56H40ZM216,192H144V136h72v56Z"></path>
  </symbol>
  <symbol xmlns="http://www.w3.org/2000/svg" fill="var(--color, #fff)" viewBox="0 0 256 256" id="play">
    <path d="M240,128a15.74,15.74,0,0,1-7.6,13.51L88.32,229.65a16,16,0,0,1-16.2.3A15.86,15.86,0,0,1,64,216.13V39.87a15.86,15.86,0,0,1,8.12-13.82,16,16,0,0,1,16.2.3L232.4,114.49A15.74,15.74,0,0,1,240,128Z"></path>
  </symbol>
  <symbol fill="none" xmlns="http://www.w3.org/2000/svg" viewBox="0 0 16 12" id="playlist">
    <line x1="9" y1="3.5" x2="16" y2="3.5" stroke="var(--color, #fff)"></line>
    <line x1="1" y1="7.5" x2="16" y2="7.5" stroke="var(--color, #fff)"></line>
    <line x1="1" y1="11.5" x2="16" y2="11.5" stroke="var(--color, #fff)"></line>
    <path d="M6 3L1.5 5.59808L1.5 0.401924L6 3Z" fill="var(--color, #fff)"></path>
  </symbol>
  <symbol fill="none" xmlns="http://www.w3.org/2000/svg" viewBox="0 0 16 13" id="randow">
    <path d="M3.89519 5.01344L4.65259 4.14785C3.46239 2.74125 1.73119 1.98385 0 1.98385V3.06585C1.4066 3.06585 2.81319 3.71505 3.78699 4.79704L3.89519 5.01344ZM12.0102 10.0988C10.7118 10.0988 9.52157 9.55783 8.54778 8.69223L7.89858 9.55783C8.98057 10.6398 10.4954 11.1808 12.0102 11.1808V12.8038L15.7972 10.6398L12.0102 8.47583V10.0988ZM12.0102 3.60685V5.22984L15.7972 3.06585L12.0102 0.901855V2.52485C10.279 2.52485 8.54778 3.28225 7.46578 4.68884L3.78699 8.90863C2.81319 9.99063 1.4066 10.6398 0 10.6398V11.7218C1.73119 11.7218 3.46239 10.9644 4.54439 9.55783L8.22318 5.33804C9.19697 4.25605 10.6036 3.60685 12.0102 3.60685Z" fill="#6CC04A"></path>
  </symbol>
  <symbol fill="none" xmlns="http://www.w3.org/2000/svg" viewBox="0 0 16 13" id="repeat">
    <path d="M4.86899 2.70499H9.73797V4.32799L13.525 2.16399L9.73797 0V1.623H4.86899C2.16399 1.623 0 3.78699 0 6.49198C0 7.14118 0.1082 7.79038 0.432799 8.43958L1.4066 7.89858C1.1902 7.46578 1.082 7.03298 1.082 6.49198C1.082 4.43619 2.81319 2.70499 4.86899 2.70499ZM14.7152 4.54439L13.7414 5.08539C13.9578 5.51818 14.066 5.95098 14.066 6.49198C14.066 8.54778 12.3348 10.279 10.279 10.279H5.40998V8.65598L1.623 10.82L5.40998 12.984V11.361H10.279C12.984 11.361 15.148 9.19697 15.148 6.49198C15.148 5.84278 15.0398 5.19358 14.7152 4.54439Z" fill="var(--color, #fff)"></path>
  </symbol>
  <symbol fill="none" xmlns="http://www.w3.org/2000/svg" viewBox="0 0 16 14" id="songs">
    <path d="M12.945 0.208374L12.293 1.00317C13.87 2.52608 14.863 4.69483 14.863 7.10525C14.863 9.51567 13.869 11.6844 12.293 13.2073L12.944 14.0021C13.8641 13.1271 14.5991 12.0618 15.102 10.8744C15.6048 9.68693 15.8646 8.40334 15.8647 7.10548C15.8648 5.80762 15.6052 4.52399 15.1025 3.33647C14.5998 2.14894 13.865 1.08359 12.945 0.208374ZM10.673 2.97921L10.022 3.774C10.4467 4.20881 10.784 4.72739 11.0143 5.29947C11.2445 5.87156 11.363 6.48567 11.3629 7.10599C11.3628 7.7263 11.2441 8.34038 11.0137 8.91239C10.7833 9.4844 10.4458 10.0029 10.021 10.4375L10.672 11.2323C11.712 10.1907 12.363 8.72817 12.363 7.10629C12.363 5.48442 11.713 4.02087 10.673 2.97921ZM0 3.98025V10.2303H2.804L8 13.3553V0.855249L2.804 3.98025H0ZM7 2.65942V11.5511L3.072 9.18858H1V5.02192H3.072L7 2.65942Z" fill="var(--color, #fff)"></path>
  </symbol>
  <symbol fill="none" xmlns="http://www.w3.org/2000/svg" viewBox="0 0 15 15" id="Union">
    <path opacity="0.7" d="M6.85297 2.04065C5.28499 0.870821 3.09453 1.03618 1.71993 2.42813V2.42813C0.212264 3.95484 0.212264 6.40999 1.71993 7.93669L2.41771 8.64329L2.41181 8.64929L7.52959 13.8317V13.8317C7.53281 13.8284 7.53812 13.8284 7.54134 13.8317V13.8317L12.6591 8.64929L12.6532 8.64329L13.351 7.93669C14.8587 6.40999 14.8587 3.95484 13.351 2.42813V2.42813C11.9764 1.03618 9.78594 0.870821 8.21796 2.04065L7.53547 2.54984L6.85297 2.04065Z" stroke="white" fill="var(--color, #fff)" stroke-linejoin="round"></path>
  </symbol>
   <symbol fill="none" xmlns="http://www.w3.org/2000/svg" viewBox="0 0 32 32" id="curtir">
    <rect width="32" height="32" fill="url(#paint0_linear_319_7)"></rect>
    <path d="M21.7971 10.727C21.0807 10.0042 20.1189 9.57705 19.1024 9.53019C18.0859 9.48333 17.0889 9.82019 16.3091 10.474C16.2194 10.5417 16.1113 10.5807 15.9991 10.586C15.8861 10.5827 15.7772 10.5434 15.6881 10.474C14.9086 9.81982 13.9117 9.48271 12.8952 9.52957C11.8787 9.57644 10.917 10.0039 10.2011 10.727C9.43108 11.497 9.00708 12.521 9.00708 13.61C9.00708 14.699 9.43108 15.723 10.1751 16.465L14.6371 21.688C14.8052 21.8852 15.0142 22.0436 15.2495 22.1522C15.4848 22.2609 15.7409 22.3171 16.0001 22.3171C16.2593 22.3171 16.5154 22.2609 16.7507 22.1522C16.986 22.0436 17.1949 21.8852 17.3631 21.688L21.7981 16.493C22.1779 16.1153 22.4792 15.666 22.6843 15.1711C22.8894 14.6763 22.9944 14.1457 22.9931 13.61C22.9939 13.0743 22.8887 12.5437 22.6834 12.0489C22.4782 11.554 22.1769 11.1048 21.7971 10.727Z" fill="var(--color, #fff)"></path>
    <defs>
      <linearGradient id="paint0_linear_319_7" x1="0" y1="0" x2="27.5" y2="32" gradientUnits="userSpaceOnUse">
        <stop stop-color="#27148F"></stop>
        <stop offset="0.65219" stop-color="#605F9E"></stop>
        <stop offset="1" stop-color="#86979A"></stop>
      </linearGradient>
    </defs>
  </symbol>
   <symbol xmlns="http://www.w3.org/2000/svg" fill="var(--color, #fff)" viewBox="0 0 256 256" id="heart">
    <path d="M178,32c-20.65,0-38.73,8.88-50,23.89C116.73,40.88,98.65,32,78,32A62.07,62.07,0,0,0,16,94c0,70,103.79,126.66,108.21,129a8,8,0,0,0,7.58,0C136.21,220.66,240,164,240,94A62.07,62.07,0,0,0,178,32ZM128,206.8C109.74,196.16,32,147.69,32,94A46.06,46.06,0,0,1,78,48c19.45,0,35.78,10.36,42.6,27a8,8,0,0,0,14.8,0c6.82-16.67,23.15-27,42.6-27a46.06,46.06,0,0,1,46,46C224,147.61,146.24,196.15,128,206.8Z"></path>
  </symbol>
  <symbol xmlns="http://www.w3.org/2000/svg" fill="var(--color, #fff)" viewBox="0 0 256 256" id="clock">
    <path d="M128,24A104,104,0,1,0,232,128,104.11,104.11,0,0,0,128,24Zm0,192a88,88,0,1,1,88-88A88.1,88.1,0,0,1,128,216Zm64-88a8,8,0,0,1-8,8H128a8,8,0,0,1-8-8V72a8,8,0,0,1,16,0v48h48A8,8,0,0,1,192,128Z"></path>
  </symbol>
</svg>