<svg width="0" height="0" class="hidden">
  <symbol fill="none" xmlns="http://www.w3.org/2000/svg" viewBox="0 0 32 32" id="add">
    <g clip-path="url(#clip0_319_15)">
      <rect opacity="0.7" width="32" height="32" fill="white"></rect>
      <path d="M23 17.4H17.4V23H14.6V17.4H9V14.6H14.6V9H17.4V14.6H23V17.4Z" fill="black"></path>
    </g>
    <defs>
      <clipPath id="clip0_319_15">
        <rect width="32" height="32" fill="white"></rect>
      </clipPath>
    </defs>
  </symbol>
  <symbol fill="none" xmlns="http://www.w3.org/2000/svg" viewBox="0 0 24 24" id="books">
    <path d="M13.6547 3.83335L21.4523 21.3452L20.5476 21.75L12.75 4.23811L13.6547 3.83335ZM3 21.7381V3.7381H4.00003V21.7381H3ZM9 21.7381V3.7381H10V21.7381H9Z" fill="var(--icone-menu, #fff)"></path>
  </symbol>
  <symbol fill="none" xmlns="http://www.w3.org/2000/svg" viewBox="0 0 24 24" id="home">
    <path d="M21 21.7381H14V14.7381H9.99998V21.7381H3V6.95242L12 1.71432L21 6.9167V21.7381Z" fill="var(--icone-menu, #fff)"></path>
  </symbol>
  <symbol fill="none" xmlns="http://www.w3.org/2000/svg" viewBox="0 0 24 24" id="search">
    <path fill-rule="evenodd" clip-rule="evenodd" d="M16.3929 16.3096L20.7857 21.4643L20.0238 22.1191L15.619 16.9643C14.1031 18.1151 12.3968 18.6905 10.4999 18.6905C9.34911 18.6905 8.24792 18.4663 7.19636 18.0179C6.1448 17.5695 5.24003 16.9663 4.48206 16.2084C3.7241 15.4505 3.12092 14.5457 2.67255 13.4941C2.22417 12.4425 1.99997 11.3413 1.99994 10.1905C1.99991 9.03975 2.22411 7.93857 2.67255 6.88697C3.12099 5.83538 3.72416 4.93061 4.48206 4.17268C5.23997 3.41474 6.14474 2.81157 7.19636 2.36316C8.24799 1.91476 9.34917 1.69055 10.4999 1.69055C11.6507 1.69055 12.7519 1.91476 13.8035 2.36316C14.8551 2.81157 15.7599 3.41474 16.5178 4.17268C17.2757 4.93061 17.8789 5.83538 18.3273 6.88697C18.7757 7.93857 18.9999 9.03975 18.9999 10.1905C18.9999 11.3731 18.7698 12.4921 18.3094 13.5477C17.8491 14.6032 17.2102 15.5239 16.3928 16.3096L16.3929 16.3096ZM10.5 17.6905C11.8571 17.6905 13.1111 17.3552 14.2619 16.6845C15.4127 16.0138 16.3235 15.1031 16.9941 13.9523C17.6647 12.8016 18 11.5476 18.0001 10.1904C18.0001 8.83329 17.6648 7.57932 16.9941 6.42854C16.3234 5.27775 15.4127 4.36705 14.2619 3.69643C13.1112 3.0258 11.8572 2.69049 10.5 2.69049C9.14283 2.69049 7.88886 3.0258 6.73811 3.69643C5.58736 4.36705 4.67666 5.27775 4.006 6.42854C3.33535 7.57932 3.00003 8.83329 3.00006 10.1904C3.0001 11.5476 3.33541 12.8016 4.006 13.9523C4.6766 15.1031 5.5873 16.0138 6.73811 16.6845C7.88892 17.3552 9.14289 17.6905 10.5 17.6905Z" fill="var(--icone-menu, #fff)"></path>
  </symbol>
</svg>